<svg xmlns="http://www.w3.org/2000/svg" xmlns:xlink="http://www.w3.org/1999/xlink" width="102" height="119" viewBox="0 0 102 119">
    <defs>
        <linearGradient id="a" x1="50%" x2="50%" y1="0%" y2="100%">
            <stop offset="0%" stop-color="#8FA1B0"/>
            <stop offset="100%" stop-color="#5F7083"/>
        </linearGradient>
        <linearGradient id="c" x1="151.693%" x2="26.768%" y1="-16.025%" y2="56.968%">
            <stop offset="0%" stop-color="#A7CCFF"/>
            <stop offset="100%" stop-color="#6E9DFF"/>
        </linearGradient>
        <path id="b" d="M.506 29.953c2.374-5.475.356-8.695 5.848-16.534.886-1.266 5.097-3.665 7.802-6.706 2.64-2.968 3.778-6.594 4.486-6.55 1.522.095 5.516 3.137 6.947 4.025 1.137.706 4.45 3.75 10.055 6.426 5.606 2.676 9.108 9.204 14.036 19.339-4.67-.972-7.435.14-8.295 3.334.018-6.809-.642-8.77-1.98-5.884-1.337 2.886-.677 14.956 1.98 36.212H4.905l5.461-30.328c-8.155 1.427-11.442.315-9.86-3.334z"/>
        <linearGradient id="e" x1="100%" x2="50%" y1="-21.796%" y2="50%">
            <stop offset="0%" stop-color="#5E587E"/>
            <stop offset="100%" stop-color="#302C48"/>
        </linearGradient>
        <linearGradient id="f" x1="65.366%" x2="9.993%" y1="60.12%" y2="46.978%">
            <stop offset="0%" stop-color="#929FAA"/>
            <stop offset="100%" stop-color="#D4DBE0"/>
        </linearGradient>
        <linearGradient id="g" x1="65.366%" x2="9.993%" y1="60.12%" y2="46.978%">
            <stop offset="0%" stop-color="#B8C6D1"/>
            <stop offset="100%" stop-color="#E3E7EB"/>
        </linearGradient>
        <linearGradient id="h" x1="65.366%" x2="9.993%" y1="60.12%" y2="46.978%">
            <stop offset="0%" stop-color="#F8F9FA"/>
            <stop offset="100%" stop-color="#EFF1F3"/>
        </linearGradient>
        <linearGradient id="i" x1="93.5%" x2="0%" y1="48.306%" y2="55.779%">
            <stop offset="0%" stop-color="#F1F3F7"/>
            <stop offset="100%" stop-color="#D6DCE2"/>
        </linearGradient>
        <linearGradient id="j" x1="100%" x2="0%" y1="100%" y2="100%">
            <stop offset="0%" stop-color="#D9DFE6"/>
            <stop offset="100%" stop-color="#C1CAD5"/>
        </linearGradient>
    </defs>
    <g fill="none" fill-rule="evenodd">
        <g fill="url(#a)" fill-rule="nonzero" opacity=".5" transform="rotate(87 35.42 37.006)">
            <path d="M10.07 6.07L8.006 2.412c-.217-.383-.727-.531-1.14-.33-.413.2-.573.674-.356 1.058l2.064 3.657c.216.384.726.532 1.14.33.413-.2.572-.674.356-1.057zM5.32 9.416L1.945 6.914c-.354-.263-.88-.19-1.176.161-.295.352-.248.85.105 1.112l3.374 2.501c.353.263.88.19 1.175-.161.296-.352.249-.85-.105-1.111zM15.404 5.415l.041-4.199c.005-.44-.363-.824-.821-.856-.459-.033-.834.298-.838.738l-.041 4.2c-.004.44.363.823.822.856.458.032.833-.298.837-.739z"/>
        </g>
        <g transform="translate(26 37)">
            <mask id="d" fill="#fff">
                <use xlink:href="#b"/>
            </mask>
            <use fill="url(#c)" xlink:href="#b"/>
            <path fill="url(#c)" d="M9.384 9.491c11.011-.23 16.766-2.73 17.265-7.496.499-4.766-2.379-6.286-8.633-4.56L9.384 9.491z" mask="url(#d)" opacity=".185" style="mix-blend-mode:multiply" transform="rotate(10 18.044 3.119)"/>
        </g>
        <path fill="#6E9DFF" fill-rule="nonzero" d="M63.24 65.213c7.165 9.774 12.901 16.758 16.058 16.368 4.233.01 11.145-7.37 18.584-13.901l-.867-7.1c-3.124 6.346-11.652 9.126-15.356 11.84-1.584-.364-5.431-3.248-12.87-17.137l-5.549 9.93z"/>
        <path fill="#FF7C7C" d="M48.105 11.369c5.81-.407 10.41 4.074 10.274 10.006l-.262 11.483c-.135 5.933-3.592 10.977-7.722 11.266-4.13.288-8.255-4.225-9.215-10.081l-1.857-11.335c-.96-5.856 2.972-10.933 8.782-11.34z"/>
        <path fill="#FF7C7C" d="M57.146 19.63c-1.765 1.072-3.721 1.934-5.574 1.74-5.792-.61-3.438.004-4.587 1.358l-2.79 8.885c-.053 4.406 1.75 9.714 4.368 12.333-3.455-.906-6.566-4.918-7.383-9.903l-1.857-11.335c-.96-5.856 2.972-10.933 8.782-11.339 5.81-.406 5.303 1.338 8.61 2.385l.431 5.876z" opacity=".275" style="mix-blend-mode:multiply"/>
        <path fill="url(#e)" d="M5.177 27.884a12.322 12.322 0 0 1-2.773-4.8C.636 17.426-.047 10.82.222 7.976c.626-6.62 8.494-9.977 15.749-6.62 7.254 3.357 8.693 9.747 6.938 10.818-1.755 1.071-13.175 1.509-15.453-1.071-2.45.714-3.209 6.308-2.279 16.781z" transform="translate(36 7)"/>
        <path fill="#FF6A6A" d="M41.168 28.319c1.498.157 2.625-.617 2.795-2.239.17-1.62-.905-3.062-2.403-3.22-1.498-.157-2.353-.234-2.523 1.387-.17 1.621.634 3.914 2.131 4.072z"/>
        <g>
            <path fill="url(#f)" d="M5.16 0c7.193 7.29 13.5 11.692 18.919 13.207 5.42 1.515 15.015 3.896 28.786 7.143v60.39c-12.61-1.776-22.205-3.728-28.786-5.855-6.582-2.128-10.507-5.632-11.775-10.514L5.16 0z" transform="translate(0 37)"/>
            <path fill="url(#g)" d="M2.381 1.592C11.427 8.616 18.66 12.886 24.08 14.401c5.42 1.515 15.015 3.498 28.786 5.95v60.39c-12.61-1.777-22.205-3.73-28.786-5.856-6.582-2.128-11.433-5.101-14.554-8.922L2.381 1.593z" transform="translate(0 37)"/>
            <path fill="url(#h)" d="M0 5.175c10.633 5.432 18.66 8.905 24.079 10.42 5.42 1.515 15.015 2.967 28.786 4.357v61.983c-12.61-1.777-22.205-3.73-28.786-5.856-6.582-2.127-12.227-5.101-16.935-8.922L0 5.175z" transform="translate(0 37)"/>
            <path fill="url(#i)" d="M102 7.082l-5.239 61.982c-9.749 1.175-17.14 2.493-22.175 3.956s-12.407 4.435-22.118 8.915V19.952c8.565-5.005 15.937-8.311 22.118-9.917 6.18-1.606 15.318-2.59 27.414-2.953zm-38.342 28.35l.35 2.663-.43 1.895-.43 1.86 1.998 1.923-1.835 3.44.388 1.909-.872 1.556 1.32 2.127-.848 2.57-.038 2.476 3.037-1.088 1.63-.149 1.458-.887 1.778-1.368 2.26.079 1.294.28 2.272-1.34 1.833.626 1.958-1.077 1.226-.544 2.499 1.03 2.132-1.056 2.779-.46.638-1.798-.979-2.145 1.078-2.473-.692-1.916.531-2.524.882-1.658-.668-2.375-.668-2.369.916-2.288.264-4.979-4.997.65-3.003 1.186-2.461-.476a90.786 90.786 0 0 0-3.268.63c-.385.087-1.604 1.07-3.658 2.952l-3.297-.174-1.878.11-1.859 1.693-2.64 1.489z" transform="translate(0 37)"/>
            <path fill="url(#j)" d="M61.518 24.17c3.51-1.875 7.914-3.569 13.21-5.082a67.235 67.235 0 0 1 16.283-2.547v5.408c-5.452.035-10.546.644-15.283 1.828-4.737 1.183-9.474 3.163-14.21 5.939V24.17zM62.708 64.373c2.196-1.617 5.942-3.183 11.237-4.695 5.296-1.513 10.47-2.314 15.525-2.402l-.396 4.612c-4.184.039-8.645.65-13.382 1.834-4.736 1.183-9.064 3.117-12.984 5.8v-5.149z" transform="translate(0 37)"/>
            <path fill="#D1D9E0" fill-rule="nonzero" d="M9.97 59.424c3.1 2.038 5.039 3.639 10.578 5.726 8.092 3.05 16.255 4.66 24.343 4.41l-.132-3.917c-7.336.227-14.965-1.316-22.476-4.147-5.188-1.955-10.273-4.376-13.085-6.225l.773 4.153zM10.783 68.394c3.169 1.929 5.162 3.447 10.77 5.34 8.194 2.765 15.615 4.118 23.689 3.586l-.268-3.938c-7.325.482-14.21-.794-21.814-3.36-5.254-1.773-10.023-4.03-12.898-5.779l.521 4.151zM11.703 76.673c3.13 1.872 5.978 3.76 11.491 5.553 8.055 2.619 14.405 3.02 22.288 2.343l-.346-3.947c-7.151.614-12.958.294-20.434-2.136-5.164-1.679-10.747-4.263-13.586-5.961l.587 4.148z" opacity=".6"/>
            <path fill="#D1D9E0" d="M12.404 82.088l1.886 18.546c4.621 2.782 9.738 4.459 15.352 5.031-.956-6.54-.956-9.807-.956-17.606-6.418-.988-11.846-2.978-16.282-5.971z" opacity=".6"/>
        </g>
        <g fill="#FF7C7C" transform="translate(98 59)">
            <rect width="3.429" height="1.852" x=".286" y=".741" rx=".926" transform="rotate(14 2 1.667)"/>
            <rect width="3.429" height="1.852" x=".286" y="2.963" rx=".926" transform="rotate(14 2 3.889)"/>
            <rect width="3.429" height="1.852" x=".286" y="5.185" rx=".926" transform="rotate(14 2 6.111)"/>
            <rect width="3.429" height="1.852" x=".286" y="7.407" rx=".926" transform="rotate(14 2 8.333)"/>
        </g>
        <g fill="#FF7C7C" transform="rotate(170 -.018 38.587)">
            <rect width="3.333" height="1.391" x=".333" y=".696" rx=".696" transform="rotate(14 2 1.391)"/>
            <rect width="3.333" height="1.391" x=".333" y="2.435" rx=".696" transform="rotate(14 2 3.13)"/>
            <rect width="3.333" height="1.391" x=".333" y="4.174" rx=".696" transform="rotate(14 2 4.87)"/>
            <rect width="3.333" height="1.391" x=".391" y="5.918" rx=".696" transform="rotate(14 2.058 6.614)"/>
        </g>
    </g>
</svg>
